<svg xmlns="http://www.w3.org/2000/svg" width="25.285" height="20.228" viewBox="0 0 25.285 20.228">
  <defs>
    <style>
      .cls-1 {
        fill: #376ed6;
      }
    </style>
  </defs>
  <path id="Icon_awesome-project-diagram" data-name="Icon awesome-project-diagram" class="cls-1" d="M15.171,12.643H10.114A1.264,1.264,0,0,0,8.85,13.907v5.057a1.264,1.264,0,0,0,1.264,1.264h5.057a1.264,1.264,0,0,0,1.264-1.264V13.907A1.264,1.264,0,0,0,15.171,12.643ZM7.586,1.264A1.264,1.264,0,0,0,6.321,0H1.264A1.264,1.264,0,0,0,0,1.264V6.321A1.264,1.264,0,0,0,1.264,7.586H5.046l2.89,5.059a2.52,2.52,0,0,1,2.178-1.266h.011L7.586,6.934V5.057h8.85V2.529H7.586ZM24.021,0H18.964A1.264,1.264,0,0,0,17.7,1.264V6.321a1.264,1.264,0,0,0,1.264,1.264h5.057a1.264,1.264,0,0,0,1.264-1.264V1.264A1.264,1.264,0,0,0,24.021,0Z"/>
</svg>
