<svg xmlns="http://www.w3.org/2000/svg" width="51.008" height="49.733" viewBox="0 0 51.008 49.733">
  <defs>
    <style>
      .cls-1 {
        fill: #366ed5;
      }
    </style>
  </defs>
  <path id="Icon_awesome-github" data-name="Icon awesome-github" class="cls-1" d="M17.061,40.608c0,.206-.237.37-.535.37-.339.031-.576-.134-.576-.37,0-.206.237-.37.535-.37C16.793,40.207,17.061,40.371,17.061,40.608Zm-3.2-.463c-.072.206.134.442.442.5a.482.482,0,0,0,.638-.206c.062-.206-.134-.442-.442-.535A.528.528,0,0,0,13.863,40.145Zm4.545-.175c-.3.072-.5.267-.473.5.031.206.3.339.607.267s.5-.267.473-.473S18.706,39.939,18.408,39.97ZM25.175.563C10.911.563,0,11.391,0,25.655a25.782,25.782,0,0,0,17.431,24.6c1.316.237,1.779-.576,1.779-1.244,0-.638-.031-4.155-.031-6.314,0,0-7.2,1.543-8.71-3.065,0,0-1.172-2.993-2.859-3.764,0,0-2.355-1.615.165-1.584a5.428,5.428,0,0,1,3.97,2.653c2.252,3.97,6.026,2.828,7.5,2.149a5.716,5.716,0,0,1,1.645-3.466c-5.749-.638-11.549-1.471-11.549-11.364A7.794,7.794,0,0,1,11.765,18.2a9.716,9.716,0,0,1,.267-6.983c2.149-.668,7.1,2.777,7.1,2.777a24.295,24.295,0,0,1,12.916,0s4.947-3.455,7.1-2.777a9.712,9.712,0,0,1,.267,6.983c1.645,1.82,2.653,3.239,2.653,6.057,0,9.924-6.057,10.716-11.806,11.364A6.082,6.082,0,0,1,32,40.392c0,3.466-.031,7.754-.031,8.6,0,.668.473,1.481,1.779,1.244A25.545,25.545,0,0,0,51.008,25.655C51.008,11.391,39.438.563,25.175.563ZM10,36.031c-.134.1-.1.339.072.535.165.165.4.237.535.1.134-.1.1-.339-.072-.535C10.366,35.97,10.13,35.9,10,36.031ZM8.885,35.2c-.072.134.031.3.237.4a.306.306,0,0,0,.442-.072c.072-.134-.031-.3-.237-.4C9.122,35.065,8.957,35.1,8.885,35.2Zm3.332,3.661c-.165.134-.1.442.134.638.237.237.535.267.668.1.134-.134.072-.442-.134-.638C12.659,38.726,12.351,38.695,12.217,38.859Zm-1.172-1.512c-.165.1-.165.37,0,.607s.442.339.576.237a.469.469,0,0,0,0-.638C11.477,37.317,11.209,37.214,11.045,37.348Z" transform="translate(0 -0.563)"/>
</svg>
