<svg xmlns="http://www.w3.org/2000/svg" width="9.425" height="25.133" viewBox="0 0 9.425 25.133">
  <defs>
    <style>
      .cls-1 {
        fill: #376ed6;
      }
    </style>
  </defs>
  <path id="Icon_awesome-info" data-name="Icon awesome-info" class="cls-1" d="M.982,20.824h.982V13.733H.982A.982.982,0,0,1,0,12.752V10.407a.982.982,0,0,1,.982-.982h5.5a.982.982,0,0,1,.982.982V20.824h.982a.982.982,0,0,1,.982.982v2.345a.982.982,0,0,1-.982.982H.982A.982.982,0,0,1,0,24.151V21.806A.982.982,0,0,1,.982,20.824ZM4.712,0A3.534,3.534,0,1,0,8.247,3.534,3.534,3.534,0,0,0,4.712,0Z"/>
</svg>
