<svg xmlns="http://www.w3.org/2000/svg" width="46.071" height="46.071" viewBox="0 0 46.071 46.071">
  <defs>
    <style>
      .cls-1 {
        fill: #366ed5;
      }
    </style>
  </defs>
  <path id="Icon_awesome-linkedin" data-name="Icon awesome-linkedin" class="cls-1" d="M42.781,2.25H3.281A3.305,3.305,0,0,0,0,5.572V45a3.305,3.305,0,0,0,3.281,3.322h39.5A3.314,3.314,0,0,0,46.071,45V5.572A3.314,3.314,0,0,0,42.781,2.25ZM13.924,41.74H7.1V19.753h6.839V41.74ZM10.51,16.75a3.959,3.959,0,1,1,3.959-3.959A3.961,3.961,0,0,1,10.51,16.75ZM39.521,41.74H32.692v-10.7c0-2.55-.051-5.831-3.548-5.831-3.558,0-4.1,2.777-4.1,5.646V41.74H18.213V19.753h6.551v3h.093a7.192,7.192,0,0,1,6.469-3.548c6.911,0,8.2,4.556,8.2,10.479Z" transform="translate(0 -2.25)"/>
</svg>
