<svg xmlns="http://www.w3.org/2000/svg" width="24.433" height="21.718" viewBox="0 0 24.433 21.718">
  <defs>
    <style>
      .cls-1 {
        fill: #376ed6;
      }
    </style>
  </defs>
  <path id="Icon_awesome-lock-open" data-name="Icon awesome-lock-open" class="cls-1" d="M17.964,0a6.489,6.489,0,0,0-6.426,6.511V9.5h-9.5A2.037,2.037,0,0,0,0,11.538v8.144a2.037,2.037,0,0,0,2.036,2.036H16.967A2.037,2.037,0,0,0,19,19.682V11.538A2.037,2.037,0,0,0,16.967,9.5H14.931V6.486a3.054,3.054,0,1,1,6.108-.038V9.841a1.016,1.016,0,0,0,1.018,1.018h1.357a1.016,1.016,0,0,0,1.018-1.018V6.448A6.455,6.455,0,0,0,17.964,0Z" transform="translate(0 0)"/>
</svg>
