<svg id="Group_21" data-name="Group 21" xmlns="http://www.w3.org/2000/svg" xmlns:xlink="http://www.w3.org/1999/xlink" width="435.51" height="332.934" viewBox="0 0 435.51 332.934">
  <defs>
    <style>
      .cls-1 {
        fill: none;
      }

      .cls-2 {
        clip-path: url(#clip-path);
      }

      .cls-3 {
        fill: #fff;
      }

      .cls-4 {
        fill: #171719;
      }
    </style>
    <clipPath id="clip-path">
      <rect id="Rectangle_11" data-name="Rectangle 11" class="cls-1" width="435.51" height="332.934"/>
    </clipPath>
  </defs>
  <g id="Group_20" data-name="Group 20" class="cls-2">
    <path id="Path_18" data-name="Path 18" d="M215.373,358.568c-.5-.255-50.622-25.514-127.3-35.064l-50.7,10.548L0,309.363l1.573-3.96c4.24-10.735,13.561-44.415,18.48-95.022l.392-4.028,5.763-.924c16.467-2.608,33.13-4.9,49.61-6.822V95.776H50.335V56.443h101.89V95.776h-24.81a109.222,109.222,0,0,0,23.567,51.246c12.848,15.315,29.2,25.726,47.285,30.111a81.805,81.805,0,0,0,19.273,2.3h.44a81.81,81.81,0,0,0,19.271-2.3c18.088-4.385,34.439-14.8,47.287-30.112a109.217,109.217,0,0,0,23.568-51.246H283.294V56.443H385.185V95.776H359.7v102.83c16.491,1.926,33.153,4.216,49.6,6.821l5.772.925.392,4.028c4.918,50.607,14.24,84.288,18.481,95.027l1.562,3.955-3.546,2.349-33.815,22.34-50.7-10.548a470.942,470.942,0,0,0-92.464,21.061c-22.046,7.513-34.711,13.939-34.837,14l-2.387,1.219Z" transform="translate(0 -26.853)"/>
    <path id="Path_19" data-name="Path 19" class="cls-3" d="M215.373,358.568c-.5-.255-50.622-25.514-127.3-35.064l-50.7,10.548L0,309.363l1.573-3.96c4.24-10.735,13.561-44.415,18.48-95.022l.392-4.028,5.763-.924c16.467-2.608,33.13-4.9,49.61-6.822V95.776H50.335V56.443h101.89V95.776h-24.81a109.222,109.222,0,0,0,23.567,51.246c12.848,15.315,29.2,25.726,47.285,30.111a81.805,81.805,0,0,0,19.273,2.3h.44a81.81,81.81,0,0,0,19.271-2.3c18.088-4.385,34.439-14.8,47.287-30.112a109.217,109.217,0,0,0,23.568-51.246H283.294V56.443H385.185V95.776H359.7v102.83c16.491,1.926,33.153,4.216,49.6,6.821l5.772.925.392,4.028c4.918,50.607,14.24,84.288,18.481,95.027l1.562,3.955-3.546,2.349-33.815,22.34-50.7-10.548a470.942,470.942,0,0,0-92.464,21.061c-22.046,7.513-34.711,13.939-34.837,14l-2.387,1.219Z" transform="translate(0 -26.853)"/>
    <path id="Path_20" data-name="Path 20" d="M85.387,367.761v76.722q-7.234,1.054-14.453,2.2V369.958q7.046-1.117,14.112-2.144c.115-.021.225-.037.341-.052" transform="translate(-33.748 -174.967)"/>
    <path id="Path_21" data-name="Path 21" d="M732.6,367.814l-.341.115v-.168c.115.016.225.031.341.052" transform="translate(-348.384 -174.967)"/>
    <path id="Path_22" data-name="Path 22" d="M399.267,330.6c-.309-.005-.619-.016-.928-.021l1.84.047c-.3-.01-.608-.021-.912-.026m6.134.168-2.878-.079,4.314.126-1.436-.047m3.733.121c.016.005.031,0,.047.005.692.021,1.384.047,2.076.068-.708-.026-1.415-.052-2.123-.073m-88.428.236c-1.452.058-2.9.115-4.351.183q2.564-.11,5.117-.21c-.257.005-.509.016-.765.026m0,0c-1.452.058-2.9.115-4.351.183q2.564-.11,5.117-.21c-.257.005-.509.016-.765.026" transform="translate(-150.509 -157.279)"/>
    <path id="Path_23" data-name="Path 23" d="M395.372,33.662V98.007H418.2v15.406A66.993,66.993,0,0,1,402.122,123a63.639,63.639,0,0,1-42.987,2.24A62.256,62.256,0,0,1,352.9,123,67.31,67.31,0,0,1,336.3,113V98.007h22.833V33.662H336.3v-25h81.9v25Z" transform="translate(-160 -4.122)"/>
    <path id="Path_24" data-name="Path 24" d="M373.247,128.372a68.323,68.323,0,0,1-19.776-2.918,67.252,67.252,0,0,1-6.707-2.408,72.027,72.027,0,0,1-17.755-10.7l-1.667-1.36V89.343h22.832V34.082H327.343V0h91.292V34.082H395.807V89.343h22.828v22.081l-1.7,1.362a71.721,71.721,0,0,1-17.214,10.262,68.459,68.459,0,0,1-26.476,5.323" transform="translate(-155.738)"/>
    <path id="Path_25" data-name="Path 25" class="cls-3" d="M373.247,128.372a68.323,68.323,0,0,1-19.776-2.918,67.252,67.252,0,0,1-6.707-2.408,72.027,72.027,0,0,1-17.755-10.7l-1.667-1.36V89.343h22.832V34.082H327.343V0h91.292V34.082H395.807V89.343h22.828v22.081l-1.7,1.362a71.721,71.721,0,0,1-17.214,10.262,68.459,68.459,0,0,1-26.476,5.323" transform="translate(-155.738)"/>
    <path id="Path_26" data-name="Path 26" class="cls-4" d="M395.372,33.662V98.007H418.2v15.406A66.993,66.993,0,0,1,402.122,123a63.639,63.639,0,0,1-42.987,2.24A62.256,62.256,0,0,1,352.9,123,67.31,67.31,0,0,1,336.3,113V98.007h22.833V33.662H336.3v-25h81.9v25Z" transform="translate(-160 -4.122)"/>
    <path id="Path_27" data-name="Path 27" class="cls-4" d="M85.387,444.531q-7.234,1.054-14.453,2.2V370.005q7.046-1.117,14.112-2.144l.341.115Z" transform="translate(-33.748 -175.015)"/>
    <path id="Path_28" data-name="Path 28" class="cls-4" d="M416.1,215.645l-1.767-.283q-26.964-4.27-54.023-7.324V95.291h25.483V66.442H294.386V95.291h25.667c-.058.477-.121.954-.189,1.426-6.2,44.917-36.518,80.811-75.527,90.268a86.837,86.837,0,0,1-20.508,2.448h-.44a86.837,86.837,0,0,1-20.508-2.448c-39.008-9.457-69.325-45.352-75.527-90.268-.068-.472-.131-.949-.189-1.426h25.667V66.442H61.426V95.291H86.909V208.038q-27.058,3.051-54.023,7.324l-1.767.283c-6.312,64.937-18.825,96.449-18.825,96.449l31.994,21.137L93.7,322.951c79.123,9.709,129.906,35.706,129.906,35.706s50.783-26,129.906-35.706l49.415,10.28,31.994-21.137S422.41,280.582,416.1,215.645m-96.234-41.981v30.484q-14.878-1.187-29.766-2a132.848,132.848,0,0,0,29.766-28.487m-192.51,0a132.894,132.894,0,0,0,29.771,28.492q-14.894.8-29.771,1.992Zm96.255,165.187S199.2,325.331,160.4,313.1c0,0,31.087-3.308,63.207-3.308s63.207,3.308,63.207,3.308c-38.8,12.236-63.207,25.756-63.207,25.756m188.3-28.812a1217.2,1217.2,0,0,0-376.591,0V219.226c1.457-.231,2.92-.456,4.377-.676q36.778-5.638,73.739-9,6.959-.637,13.924-1.19,17.866-1.431,35.748-2.317c1.431-.068,2.862-.142,4.294-.2s2.868-.136,4.3-.194c1.452-.068,2.9-.126,4.351-.183.257-.01.509-.021.765-.026,1.7-.068,3.413-.131,5.117-.189q3.248-.11,6.5-.2c.875-.026,1.756-.052,2.637-.073q2.178-.063,4.367-.11,3.6-.086,7.2-.147,5.717-.1,11.434-.147c1.62-.01,3.245-.021,4.865-.026q2.343-.008,4.687-.01,2.375,0,4.75.01,2.477.008,4.954.031c1.636.01,3.266.026,4.9.052s3.3.042,4.944.073h.168q8.713.142,17.415.409l1.436.047c.6.016,1.2.037,1.793.058l.5.016c.708.021,1.415.047,2.123.073.923.031,1.84.063,2.758.1q2.414.086,4.828.189,4.97.2,9.934.456,17.882.889,35.748,2.317,2.878.228,5.746.472,2.548.212,5.085.44c1.033.089,2.06.183,3.093.278q36.943,3.366,73.739,9,2.194.33,4.377.676Z" transform="translate(-5.849 -31.611)"/>
    <path id="Path_29" data-name="Path 29" class="cls-4" d="M166.542,354.4v76.722q-7.84.731-15.664,1.573-9.13-20.713-18.243-41.273V434.8q-7.25.9-14.49,1.882V359.959q7.809-1.062,15.628-2.024,3.232,7.29,6.459,14.6,5.89,13.313,11.785,26.689v-43.37q7.258-.771,14.527-1.452" transform="translate(-56.209 -168.611)"/>
    <path id="Path_30" data-name="Path 30" class="cls-4" d="M268.454,347.432v14.532q-7.478.362-14.946.818v62.19q-7.282.448-14.558.991v-62.19q-7.47.55-14.936,1.206V350.446q22.2-1.942,44.44-3.014" transform="translate(-106.578 -165.295)"/>
    <path id="Path_31" data-name="Path 31" class="cls-4" d="M365.624,408.868q-1.816-8.4-3.633-16.791,3.067-3.083,6.139-6.155V352.345q-3.735-3.719-7.476-7.413-18.055.173-36.1.9c-.723.026-1.452.058-2.176.089V422.64q7.29-.307,14.574-.524V393.88q5.347-.157,10.694-.267,1.376,6.33,2.752,12.666,1.683,7.73,3.36,15.46,7.313-.11,14.626-.126-1.376-6.377-2.758-12.744M353.556,378.1c-.294.3-.592.6-.886.9q-7.864.126-15.722.356V359.925q7.856-.236,15.722-.356c.294.288.592.577.886.865Z" transform="translate(-153.374 -164.106)"/>
    <path id="Path_32" data-name="Path 32" class="cls-4" d="M465.506,396.63q-6.59-25.564-13.174-51.045-7.926-.252-15.848-.393l-.865,3.3q-.763,2.9-1.52,5.809-7.124,27.224-14.254,54.531-1.691,6.448-3.371,12.9,7.455.008,14.909.1,1.746-6.943,3.491-13.882,9.531.157,19.061.472,1.746,7.022,3.491,14.055,7.455.267,14.9.634-3.413-13.25-6.82-26.484m-26.982-3.14q2.941-11.583,5.882-23.145,2.941,11.709,5.887,23.433-5.89-.173-11.769-.288" transform="translate(-198.143 -164.23)"/>
    <path id="Path_33" data-name="Path 33" class="cls-4" d="M596.271,353.142v76.722q-7.258-.794-14.521-1.494V382.882q-6.141,15.5-12.283,31.061-5.206-.448-10.406-.844-4.655-12.535-9.31-25.038-1.494-4.01-2.988-8.016v45.488q-7.282-.48-14.558-.87V347.942q8.925.48,17.85,1.09,6.377,17.268,12.749,34.61c.488,1.321.97,2.642,1.457,3.969l2.013-5.143q6.1-15.6,12.194-31.134,8.909.834,17.8,1.809" transform="translate(-253.203 -165.538)"/>
    <path id="Path_34" data-name="Path 34" class="cls-4" d="M718.595,366.257v69.267q-3.7,3.145-7.413,6.307-15.271-2.32-30.589-4.225-3.719-4.191-7.439-8.356V359.982q7.25.857,14.5,1.8v61.31c.294.33.582.661.875.991q7.376.967,14.742,2.034c.294-.246.582-.5.875-.75V364.228l.341-.115h.005q7.061,1.03,14.107,2.144" transform="translate(-320.262 -171.266)"/>
  </g>
</svg>
